<svg xmlns="http://www.w3.org/2000/svg" viewBox="0 0 1200 600" width="1200" height="600">
  <defs>
    <linearGradient id="chaosBg" x1="0" y1="0" x2="1" y2="1">
      <stop offset="0%" stop-color="#1a1a1a"/>
      <stop offset="100%" stop-color="#0d0d0d"/>
    </linearGradient>
    <linearGradient id="pipelineBg" x1="0" y1="0" x2="1" y2="1">
      <stop offset="0%" stop-color="#0d1117"/>
      <stop offset="100%" stop-color="#0a0e13"/>
    </linearGradient>
    <filter id="glow">
      <feGaussianBlur stdDeviation="3" result="blur"/>
      <feMerge><feMergeNode in="blur"/><feMergeNode in="SourceGraphic"/></feMerge>
    </filter>
    <marker id="arrowPipeline" viewBox="0 0 10 10" refX="10" refY="5" markerWidth="6" markerHeight="6" orient="auto">
      <path d="M0,0 L10,5 L0,10 Z" fill="#f59e0b"/>
    </marker>
  </defs>
  <rect x="0" y="0" width="590" height="600" fill="url(#chaosBg)"/>
  <text x="295" y="40" text-anchor="middle" fill="#888" font-family="monospace" font-size="14" letter-spacing="3">BEFORE</text>
  <g transform="translate(40, 70) rotate(-8)">
    <rect x="0" y="0" width="160" height="120" fill="none" stroke="#444" stroke-width="1" opacity="0.6"/>
    <line x1="0" y1="30" x2="160" y2="30" stroke="#444" stroke-width="0.5" opacity="0.5"/>
    <line x1="0" y1="60" x2="160" y2="60" stroke="#444" stroke-width="0.5" opacity="0.5"/>
    <line x1="0" y1="90" x2="160" y2="90" stroke="#444" stroke-width="0.5" opacity="0.5"/>
    <line x1="40" y1="0" x2="40" y2="120" stroke="#444" stroke-width="0.5" opacity="0.5"/>
    <line x1="80" y1="0" x2="80" y2="120" stroke="#444" stroke-width="0.5" opacity="0.5"/>
    <line x1="120" y1="0" x2="120" y2="120" stroke="#444" stroke-width="0.5" opacity="0.5"/>
    <text x="5" y="22" fill="#666" font-family="monospace" font-size="9">42</text>
    <text x="45" y="22" fill="#666" font-family="monospace" font-size="9">17.5</text>
    <text x="5" y="52" fill="#666" font-family="monospace" font-size="9">N/A</text>
    <text x="85" y="52" fill="#666" font-family="monospace" font-size="9">err</text>
  </g>
  <g transform="translate(55, 230) rotate(12)">
    <rect x="0" y="0" width="90" height="110" fill="#222" stroke="#555" stroke-width="1.5" rx="3" opacity="0.7"/>
    <line x1="12" y1="22" x2="78" y2="22" stroke="#555" stroke-width="2"/>
    <line x1="12" y1="34" x2="60" y2="34" stroke="#555" stroke-width="1.5"/>
    <line x1="12" y1="46" x2="72" y2="46" stroke="#555" stroke-width="1.5"/>
    <line x1="12" y1="58" x2="50" y2="58" stroke="#555" stroke-width="1.5"/>
    <line x1="12" y1="70" x2="68" y2="70" stroke="#555" stroke-width="1.5"/>
    <rect x="70" y="0" width="20" height="18" fill="#333" stroke="#555" stroke-width="1" rx="2"/>
    <text x="75" y="13" fill="#777" font-family="sans-serif" font-size="9" text-anchor="middle">PDF</text>
  </g>
  <g transform="translate(310, 60) rotate(5)">
    <rect x="0" y="0" width="200" height="140" fill="#1a1a1a" stroke="#444" stroke-width="1" rx="4" opacity="0.7"/>
    <rect x="8" y="8" width="24" height="18" fill="none" stroke="#666" stroke-width="1.5" rx="1"/>
    <line x1="8" y1="8" x2="20" y2="20" stroke="#666" stroke-width="1"/>
    <line x1="32" y1="8" x2="20" y2="20" stroke="#666" stroke-width="1"/>
    <text x="40" y="17" fill="#666" font-family="sans-serif" font-size="9">RE: Budget update</text>
    <text x="40" y="30" fill="#555" font-family="monospace" font-size="8">From: ops@...</text>
    <line x1="8" y1="38" x2="192" y2="38" stroke="#333" stroke-width="0.5"/>
    <text x="8" y="52" fill="#555" font-family="monospace" font-size="8">FYI the numbers in</text>
    <text x="8" y="64" fill="#555" font-family="monospace" font-size="8">the spreadsheet don't</text>
    <text x="8" y="76" fill="#555" font-family="monospace" font-size="8">match what we discussed.</text>
    <text x="8" y="88" fill="#555" font-family="monospace" font-size="8">Can you send the</text>
    <text x="8" y="100" fill="#555" font-family="monospace" font-size="8">latest version?</text>
    <line x1="8" y1="112" x2="192" y2="112" stroke="#333" stroke-width="0.5"/>
    <text x="8" y="126" fill="#777" font-family="sans-serif" font-size="8">3 replies, 2 unread</text>
  </g>
  <g transform="translate(60, 370) rotate(-15)">
    <path d="M0,0 Q0,-50 50,-50 L150,-50 Q200,-50 200,0 L200,30 Q200,60 180,60 L80,60 L40,85 L45,55 L0,55 Q-30,55 0,25 Z" fill="#1a1a1a" stroke="#444" stroke-width="1.5" opacity="0.7"/>
    <text x="100" y="-20" fill="#666" font-family="sans-serif" font-size="10" text-anchor="middle">@channel: where is</text>
    <text x="100" y="-5" fill="#666" font-family="sans-serif" font-size="10" text-anchor="middle">the latest report?</text>
  </g>
  <g transform="translate(280, 350) rotate(-22)">
    <rect x="0" y="0" width="70" height="50" fill="#1e1e1e" stroke="#555" stroke-width="1" rx="2" opacity="0.5"/>
    <line x1="10" y1="15" x2="60" y2="15" stroke="#555" stroke-width="1"/>
    <line x1="10" y1="25" x2="50" y2="25" stroke="#555" stroke-width="1"/>
    <line x1="10" y1="35" x2="55" y2="35" stroke="#555" stroke-width="1"/>
  </g>
  <path d="M200,130 C230,150 250,120 290,120" fill="none" stroke="#555" stroke-width="1.5" stroke-dasharray="4,4" opacity="0.5"/>
  <path d="M150,300 C180,380 150,400 90,400" fill="none" stroke="#555" stroke-width="1.5" stroke-dasharray="4,4" opacity="0.5"/>
  <path d="M250,410 C330,380 380,300 420,200" fill="none" stroke="#555" stroke-width="1.5" stroke-dasharray="4,4" opacity="0.5"/>
  <path d="M350,250 C320,350 400,450 300,460" fill="none" stroke="#555" stroke-width="1" stroke-dasharray="3,5" opacity="0.3"/>
  <text x="240" y="180" fill="#f59e0b" font-family="sans-serif" font-size="22" opacity="0.4" transform="rotate(-10, 240, 180)">?</text>
  <text x="400" y="370" fill="#f59e0b" font-family="sans-serif" font-size="18" opacity="0.3" transform="rotate(8, 400, 370)">?</text>
  <line x1="590" y1="40" x2="590" y2="560" stroke="#333" stroke-width="2"/>
  <rect x="600" y="0" width="600" height="600" fill="url(#pipelineBg)"/>
  <text x="900" y="40" text-anchor="middle" fill="#f59e0b" font-family="monospace" font-size="14" letter-spacing="3" filter="url(#glow)">AFTER</text>
  <g transform="translate(630, 100)">
    <rect x="0" y="0" width="130" height="80" fill="#1a2332" stroke="#f59e0b" stroke-width="1.5" rx="6"/>
    <text x="65" y="30" fill="#ccc" font-family="sans-serif" font-size="11" text-anchor="middle" font-weight="bold">Data Source</text>
    <rect x="20" y="45" width="18" height="18" fill="#1e2a3a" stroke="#555" stroke-width="0.5" rx="2"/>
    <line x1="23" y1="50" x2="35" y2="50" stroke="#888" stroke-width="1"/>
    <line x1="23" y1="55" x2="32" y2="55" stroke="#888" stroke-width="1"/>
    <rect x="48" y="45" width="18" height="18" fill="#1e2a3a" stroke="#555" stroke-width="0.5" rx="2"/>
    <text x="57" y="58" fill="#888" font-family="sans-serif" font-size="8" text-anchor="middle">@</text>
    <rect x="76" y="45" width="18" height="18" fill="#1e2a3a" stroke="#555" stroke-width="0.5" rx="2"/>
    <text x="85" y="58" fill="#888" font-family="sans-serif" font-size="9" text-anchor="middle">D</text>
    <rect x="104" y="45" width="18" height="18" fill="#1e2a3a" stroke="#555" stroke-width="0.5" rx="2"/>
    <text x="113" y="58" fill="#888" font-family="sans-serif" font-size="9" text-anchor="middle">C</text>
  </g>
  <line x1="760" y1="140" x2="810" y2="140" stroke="#f59e0b" stroke-width="2" marker-end="url(#arrowPipeline)"/>
  <g transform="translate(815, 100)">
    <rect x="0" y="0" width="130" height="80" fill="#1a2332" stroke="#f59e0b" stroke-width="1.5" rx="6"/>
    <text x="65" y="30" fill="#ccc" font-family="sans-serif" font-size="11" text-anchor="middle" font-weight="bold">Processing</text>
    <circle cx="50" cy="56" r="12" fill="none" stroke="#f59e0b" stroke-width="2" opacity="0.7"/>
    <circle cx="50" cy="56" r="5" fill="none" stroke="#f59e0b" stroke-width="1.5" opacity="0.5"/>
    <line x1="38" y1="49" x2="62" y2="63" stroke="#f59e0b" stroke-width="1" opacity="0.4"/>
    <line x1="62" y1="49" x2="38" y2="63" stroke="#f59e0b" stroke-width="1" opacity="0.4"/>
    <text x="100" y="60" fill="#f59e0b" font-family="monospace" font-size="9" text-anchor="middle" opacity="0.8">+AI</text>
  </g>
  <line x1="945" y1="140" x2="995" y2="140" stroke="#f59e0b" stroke-width="2" marker-end="url(#arrowPipeline)"/>
  <g transform="translate(630, 230)">
    <rect x="0" y="0" width="130" height="80" fill="#1a2332" stroke="#f59e0b" stroke-width="1.5" rx="6"/>
    <text x="65" y="28" fill="#ccc" font-family="sans-serif" font-size="11" text-anchor="middle" font-weight="bold">Structured</text>
    <text x="65" y="43" fill="#ccc" font-family="sans-serif" font-size="11" text-anchor="middle" font-weight="bold">Output</text>
    <text x="42" y="66" fill="#f59e0b" font-family="monospace" font-size="12" opacity="0.7">{</text>
    <text x="57" y="66" fill="#aaa" font-family="monospace" font-size="8">...</text>
    <text x="72" y="66" fill="#f59e0b" font-family="monospace" font-size="12" opacity="0.7">}</text>
    <rect x="88" y="54" width="24" height="18" fill="none" stroke="#aaa" stroke-width="0.5" rx="1"/>
    <line x1="88" y1="60" x2="112" y2="60" stroke="#aaa" stroke-width="0.5"/>
    <line x1="88" y1="66" x2="112" y2="66" stroke="#aaa" stroke-width="0.5"/>
    <line x1="96" y1="54" x2="96" y2="72" stroke="#aaa" stroke-width="0.5"/>
  </g>
  <g transform="translate(815, 230)">
    <rect x="0" y="0" width="130" height="80" fill="#1a2332" stroke="#f59e0b" stroke-width="1.5" rx="6"/>
    <text x="65" y="30" fill="#ccc" font-family="sans-serif" font-size="11" text-anchor="middle" font-weight="bold">Dashboard</text>
    <rect x="30" y="62" width="8" height="12" fill="#f59e0b" opacity="0.5"/>
    <rect x="42" y="50" width="8" height="24" fill="#f59e0b" opacity="0.6"/>
    <rect x="54" y="44" width="8" height="30" fill="#f59e0b" opacity="0.7"/>
    <rect x="66" y="55" width="8" height="19" fill="#f59e0b" opacity="0.6"/>
    <rect x="78" y="62" width="8" height="12" fill="#f59e0b" opacity="0.5"/>
    <text x="95" y="68" fill="#f59e0b" font-family="monospace" font-size="10" opacity="0.8">+24%</text>
  </g>
  <line x1="695" y1="180" x2="695" y2="228" stroke="#f59e0b" stroke-width="2" marker-end="url(#arrowPipeline)"/>
  <line x1="880" y1="180" x2="880" y2="228" stroke="#f59e0b" stroke-width="2" marker-end="url(#arrowPipeline)"/>
  <g transform="translate(630, 360)">
    <rect x="0" y="0" width="315" height="60" fill="#0e1a24" stroke="#f59e0b" stroke-width="1" rx="8" opacity="0.8"/>
    <text x="157" y="25" fill="#aaa" font-family="sans-serif" font-size="10" text-anchor="middle" letter-spacing="1">SYSTEMS THAT WORK TOGETHER</text>
    <text x="157" y="45" fill="#f59e0b" font-family="sans-serif" font-size="12" text-anchor="middle" font-weight="bold">Automated. Accurate. Always Current.</text>
  </g>
  <line x1="695" y1="310" x2="695" y2="358" stroke="#f59e0b" stroke-width="1.5" stroke-dasharray="3,3" opacity="0.5"/>
  <line x1="880" y1="310" x2="880" y2="358" stroke="#f59e0b" stroke-width="1.5" stroke-dasharray="3,3" opacity="0.5"/>
  <g transform="translate(580, 280)">
    <rect x="0" y="-12" width="40" height="24" fill="#f59e0b" rx="4" opacity="0.9"/>
    <text x="20" y="5" fill="#000" font-family="sans-serif" font-size="14" text-anchor="middle" font-weight="bold">&gt;</text>
  </g>
  <text x="600" y="585" fill="#444" font-family="monospace" font-size="10" text-anchor="middle">Spreadsheet Transformation Pipeline / Dorian Apps</text>
</svg>
